<svg xmlns="http://www.w3.org/2000/svg" viewBox="0 0 32 40" x="0px" y="0px"><g data-name="Layer 2"><path d="M27,2H5A3,3,0,0,0,2,5V27a3,3,0,0,0,3,3H27a3,3,0,0,0,3-3V5A3,3,0,0,0,27,2ZM5,4H27a1,1,0,0,1,1,1V21.057l-4.188-2.992a3.015,3.015,0,0,0-3.618.1l-3.12,2.5-3.208-3.208a3.008,3.008,0,0,0-3.785-.374L4,21.132V5A1,1,0,0,1,5,4ZM27,28H5a1,1,0,0,1-1-1V23.535l7.19-4.793a1,1,0,0,1,1.262.124l5.841,5.841a1,1,0,0,0,1.414-1.414l-1.21-1.21,2.947-2.357a1,1,0,0,1,1.206-.034L28,23.514V27A1,1,0,0,1,27,28Z"/><path d="M20,15a4,4,0,1,0-4-4A4,4,0,0,0,20,15Zm0-6a2,2,0,1,1-2,2A2,2,0,0,1,20,9Z"/></g><text x="0" y="47" fill="#000000" font-size="5px" font-weight="bold" font-family="'Helvetica Neue', Helvetica, Arial-Unicode, Arial, Sans-serif">Created by Saepul Nahwan</text><text x="0" y="52" fill="#000000" font-size="5px" font-weight="bold" font-family="'Helvetica Neue', Helvetica, Arial-Unicode, Arial, Sans-serif">from the Noun Project</text></svg>